<svg xmlns="http://www.w3.org/2000/svg" width="20" height="16" fill="none" viewBox="0 0 20 16"><path fill="#fff" d="M19.576 2.048a8 8 0 0 1-2.256.624A3.84 3.84 0 0 0 19.048.488a8.3 8.3 0 0 1-2.496.96 3.938 3.938 0 0 0-6.816 2.688c0 .312.024.6.096.888C6.568 4.88 3.688 3.296 1.744.92c-1.392 2.496.168 4.56 1.2 5.256-.624 0-1.248-.192-1.776-.48 0 1.944 1.368 3.552 3.144 3.912-.384.12-1.248.192-1.776.072.504 1.56 1.968 2.712 3.672 2.736-1.344 1.056-3.312 1.896-5.832 1.632a11.1 11.1 0 0 0 6.048 1.776c7.248 0 11.184-6 11.184-11.184 0-.168 0-.336-.024-.504.816-.6 1.488-1.296 1.992-2.088"/></svg>