<svg xmlns="http://www.w3.org/2000/svg" width="24" height="24" fill="none" viewBox="0 0 24 24"><g fill="#fff" clip-path="url(#a)"><path d="M17.503 0H6.497A6.504 6.504 0 0 0 0 6.497v11.007A6.504 6.504 0 0 0 6.497 24h11.007A6.504 6.504 0 0 0 24 17.504V6.497A6.504 6.504 0 0 0 17.503 0m5.09 17.504a5.095 5.095 0 0 1-5.09 5.089H6.497a5.095 5.095 0 0 1-5.09-5.09V6.498a5.095 5.095 0 0 1 5.09-5.09h11.007a5.095 5.095 0 0 1 5.089 5.09z"/><path d="M12 5.438A6.57 6.57 0 0 0 5.438 12 6.57 6.57 0 0 0 12 18.562 6.57 6.57 0 0 0 18.562 12 6.57 6.57 0 0 0 12 5.438m0 11.717A5.16 5.16 0 0 1 6.844 12 5.16 5.16 0 0 1 12 6.845 5.16 5.16 0 0 1 17.155 12 5.16 5.16 0 0 1 12 17.155m6.72-14.048c-1.07 0-1.94.87-1.94 1.94s.87 1.939 1.94 1.939 1.939-.87 1.939-1.94-.87-1.939-1.94-1.939m0 2.471a.533.533 0 1 1 0-1.065.533.533 0 0 1 0 1.065"/></g><defs><clipPath id="a"><path fill="#fff" d="M0 0h24v24H0z"/></clipPath></defs></svg>