<svg width="187" height="166" viewBox="0 0 187 166" fill="none" xmlns="http://www.w3.org/2000/svg">
<mask id="mask0_150_586" style="mask-type:luminance" maskUnits="userSpaceOnUse" x="0" y="0" width="187" height="166">
<path d="M186.667 0.191772H0.666504V165.808H186.667V0.191772Z" fill="white"/>
</mask>
<g mask="url(#mask0_150_586)">
<path d="M91.7991 79.7646V30.6616L54.7119 0.188721V42.9969C12.9445 54.6056 20.9028 65.8221 27.3092 70.6188L0.666504 83.4123L44.0943 104.279L88.0893 83.4123L44.0943 62.5611L28.1974 70.1964C21.3754 60.979 42.1485 49.9575 54.7119 44.3626V49.9109L91.7991 79.7646Z" fill="#BF0A44"/>
<path d="M134.894 116.091L97.8062 86.234V135.335L114.024 148.662C111.156 161.25 94.9508 151.797 83.2702 142.985L92.5893 135.335V86.234L55.502 116.091V165.808L81.5205 144.432C110.434 174.075 113.912 155.293 114.293 148.874L134.895 165.808L134.894 116.091Z" fill="#0063B0"/>
<path d="M147.923 65.05C157.783 19.0434 140.139 26.3278 134.101 29.945V0.191528L97.0127 30.6627V79.7639L134.101 49.9012V30.3387C147.188 25.3953 147.512 49.7311 146.586 64.4145L142.683 62.5622L99.2546 83.4149L142.683 104.282L186.674 83.4149L147.923 65.05Z" fill="#249795"/>
</g>
</svg>
