<svg width="187" height="187" viewBox="0 0 187 187" fill="none" xmlns="http://www.w3.org/2000/svg">
<path d="M152.121 52.5031C155.322 51.6453 158.153 49.7582 160.176 47.133C162.199 44.5077 163.303 41.2898 163.317 37.9754V37.936C163.317 33.9525 161.735 30.1322 158.918 27.3155C156.101 24.4988 152.281 22.9164 148.298 22.9164H148.259C144.945 22.9309 141.728 24.0349 139.103 26.0582C136.478 28.0815 134.591 30.9118 133.734 34.113C131.28 43.0012 125.978 50.839 118.642 56.4245C111.305 62.01 102.339 65.0347 93.1189 65.0347C83.8982 65.0347 74.9321 62.01 67.5957 56.4245C60.2592 50.839 54.9577 43.0012 52.5039 34.113C51.6456 30.9121 49.7585 28.0821 47.1334 26.0593C44.5084 24.0365 41.291 22.933 37.977 22.9189H37.9376C33.9542 22.9189 30.1338 24.5013 27.3171 27.318C24.5004 30.1347 22.918 33.9551 22.918 37.9385V37.9779C22.9326 41.2919 24.0366 44.5092 26.0599 47.134C28.0832 49.7587 30.9135 51.6454 34.1146 52.5031C43.0028 54.9568 50.8407 60.2585 56.4261 67.5949C62.0116 74.9313 65.0363 83.8974 65.0363 93.118C65.0363 102.339 62.0116 111.304 56.4261 118.641C50.8407 125.978 43.0028 131.279 34.1146 133.733C30.9137 134.591 28.0836 136.477 26.0605 139.102C24.0374 141.727 22.9335 144.944 22.9188 148.257V148.297C22.9188 152.281 24.5012 156.1 27.3179 158.918C30.1347 161.734 33.955 163.316 37.9384 163.316H37.9778C41.2919 163.302 44.5091 162.198 47.1339 160.175C49.7587 158.151 51.6453 155.321 52.503 152.12C54.9568 143.232 60.2585 135.394 67.5948 129.809C74.9313 124.222 83.8974 121.198 93.118 121.198C102.339 121.198 111.304 124.222 118.641 129.809C125.977 135.394 131.279 143.232 133.733 152.12C134.59 155.321 136.477 158.152 139.102 160.176C141.727 162.198 144.945 163.303 148.259 163.317H148.298C152.281 163.317 156.102 161.734 158.919 158.918C161.735 156.101 163.318 152.281 163.318 148.298V148.257C163.304 144.943 162.199 141.726 160.176 139.101C158.153 136.477 155.323 134.59 152.121 133.732C143.233 131.278 135.396 125.977 129.81 118.64C124.224 111.304 121.2 102.338 121.2 93.1172C121.2 83.8966 124.224 74.9305 129.81 67.5941C135.396 60.2577 143.233 54.9561 152.121 52.5023L152.121 52.5031Z" fill="url(#paint0_linear_1341_79)"/>
<path d="M19.6471 8.89053C20.1303 9.37104 20.7511 9.68907 21.4234 9.80035C22.0956 9.91164 22.7858 9.81066 23.3981 9.51149C28.984 6.81387 35.2691 5.91538 41.3871 6.9399C47.5052 7.96442 53.1547 10.8615 57.557 15.2317C58.1639 15.8432 58.984 16.1959 59.8453 16.2156C60.7066 16.2353 61.542 15.9205 62.1761 15.3373C62.4912 15.0366 62.743 14.6759 62.9167 14.2764C63.0905 13.8769 63.1826 13.4468 63.1877 13.0112C63.1927 12.5756 63.1107 12.1434 62.9463 11.74C62.7819 11.3366 62.5386 10.9701 62.2306 10.6621C56.8622 5.30689 49.9603 1.75518 42.4821 0.499675C35.0041 -0.75583 27.3206 0.347122 20.4977 3.65551C20.0332 3.88585 19.6302 4.22364 19.3223 4.64085C19.0144 5.05806 18.8105 5.54267 18.7273 6.05448C18.6441 6.56629 18.6842 7.09054 18.8442 7.58377C19.0041 8.077 19.2794 8.52499 19.6471 8.89053Z" fill="url(#paint1_linear_1341_79)"/>
<path d="M3.66633 20.4728C0.361977 27.2738 -0.750398 34.9325 0.482674 42.3925C1.71574 49.8525 5.23349 56.746 10.5506 62.1219C11.1097 62.7094 11.8627 63.0746 12.6702 63.15C13.4777 63.2253 14.2853 63.0057 14.9434 62.5317C15.3163 62.2499 15.6244 61.8915 15.847 61.4806C16.0695 61.0697 16.2014 60.6157 16.2336 60.1496C16.2659 59.6834 16.1978 59.2157 16.0339 58.778C15.87 58.3403 15.6142 57.9429 15.2837 57.6126C10.8911 53.2092 7.97656 47.5488 6.944 41.4155C5.91144 35.2821 6.81192 28.9795 9.52067 23.3807C9.8221 22.7678 9.92476 22.0761 9.81431 21.4021C9.70394 20.728 9.38592 20.1053 8.90473 19.6206C8.53886 19.2525 8.09057 18.9771 7.59695 18.817C7.10334 18.657 6.57868 18.617 6.0665 18.7003C5.55433 18.7837 5.06941 18.9879 4.65198 19.2962C4.23456 19.6044 3.89665 20.0078 3.66633 20.4728Z" fill="url(#paint2_linear_1341_79)"/>
<path d="M162.841 176.725C157.253 179.423 150.966 180.322 144.846 179.295C138.727 178.269 133.076 175.37 128.674 170.997C128.068 170.389 127.251 170.038 126.393 170.018C125.534 169.998 124.702 170.312 124.069 170.892C123.752 171.192 123.499 171.553 123.324 171.953C123.15 172.353 123.057 172.784 123.051 173.22C123.045 173.657 123.127 174.09 123.292 174.494C123.456 174.899 123.7 175.266 124.008 175.574C129.376 180.929 136.278 184.481 143.757 185.737C151.234 186.992 158.918 185.889 165.741 182.581C166.205 182.35 166.608 182.013 166.917 181.595C167.224 181.178 167.428 180.694 167.511 180.182C167.594 179.67 167.554 179.145 167.394 178.652C167.233 178.159 166.958 177.711 166.59 177.346C166.107 176.866 165.486 176.548 164.814 176.437C164.143 176.325 163.452 176.426 162.841 176.725Z" fill="url(#paint3_linear_1341_79)"/>
<path d="M170.892 124.067C170.311 124.699 169.998 125.532 170.018 126.391C170.037 127.249 170.388 128.067 170.997 128.672C175.373 133.077 178.273 138.733 179.296 144.857C180.32 150.982 179.417 157.273 176.712 162.862C176.412 163.475 176.311 164.166 176.421 164.838C176.533 165.511 176.85 166.133 177.331 166.617C177.697 166.985 178.144 167.259 178.637 167.42C179.13 167.58 179.653 167.621 180.165 167.538C180.677 167.455 181.162 167.252 181.578 166.944C181.996 166.637 182.334 166.235 182.565 165.77C185.883 158.946 186.994 151.257 185.742 143.773C184.49 136.287 180.937 129.379 175.578 124.006C175.27 123.696 174.902 123.453 174.497 123.287C174.092 123.122 173.659 123.04 173.223 123.046C172.785 123.052 172.354 123.145 171.954 123.321C171.553 123.496 171.193 123.749 170.892 124.067Z" fill="url(#paint4_linear_1341_79)"/>
<path d="M176.718 23.3849C179.42 28.9733 180.321 35.2628 179.296 41.3851C178.272 47.5075 175.371 53.1608 170.997 57.5648C170.388 58.17 170.037 58.9874 170.018 59.8456C169.998 60.7039 170.311 61.5363 170.892 62.1688C171.192 62.4854 171.553 62.7387 171.953 62.9137C172.353 63.0886 172.783 63.1818 173.22 63.1875C173.657 63.1933 174.089 63.1116 174.494 62.9473C174.898 62.7829 175.266 62.5393 175.574 62.2308C180.931 56.8599 184.485 49.9542 185.738 42.4724C186.993 34.9906 185.887 27.3039 182.573 20.4795C182.343 20.0151 182.004 19.6126 181.587 19.305C181.169 18.9974 180.685 18.7937 180.173 18.711C179.662 18.6282 179.137 18.6685 178.644 18.8287C178.151 18.9889 177.703 19.2644 177.338 19.6323C176.858 20.1157 176.539 20.7369 176.428 21.4094C176.317 22.082 176.419 22.7724 176.718 23.3849Z" fill="url(#paint5_linear_1341_79)"/>
<path d="M128.671 15.2394C133.075 10.8644 138.728 7.96425 144.851 6.93933C150.973 5.9144 157.262 6.81523 162.851 9.51742C163.464 9.81735 164.154 9.91883 164.826 9.80779C165.499 9.69684 166.12 9.37882 166.604 8.89814C166.972 8.53285 167.247 8.08507 167.407 7.59201C167.567 7.09894 167.608 6.57478 167.525 6.063C167.443 5.55121 167.239 5.06655 166.931 4.64919C166.624 4.23183 166.221 3.8938 165.756 3.66313C158.932 0.349566 151.245 -0.756913 143.764 0.497325C136.282 1.75157 129.376 5.30427 124.005 10.6621C123.697 10.9708 123.453 11.338 123.289 11.7423C123.124 12.1466 123.042 12.5797 123.048 13.016C123.054 13.4525 123.147 13.8833 123.321 14.2831C123.496 14.683 123.75 15.0438 124.066 15.3441C124.699 15.9245 125.531 16.2377 126.39 16.2181C127.248 16.1986 128.065 15.8479 128.671 15.2394Z" fill="url(#paint6_linear_1341_79)"/>
<path d="M57.5646 170.997C53.1607 175.371 47.5074 178.272 41.3851 179.297C35.2627 180.321 28.9732 179.421 23.3847 176.718C22.7724 176.419 22.0819 176.317 21.4094 176.428C20.7368 176.54 20.1156 176.858 19.6321 177.338C19.2643 177.704 18.9889 178.151 18.8286 178.645C18.6684 179.137 18.628 179.662 18.7108 180.173C18.7937 180.685 18.9973 181.17 19.3049 181.587C19.6124 182.004 20.0151 182.343 20.4793 182.573C27.3038 185.887 34.9905 186.993 42.4723 185.738C49.9541 184.485 56.8598 180.932 62.2306 175.574C62.5392 175.266 62.7829 174.898 62.9472 174.494C63.1115 174.09 63.1932 173.657 63.1874 173.22C63.1816 172.784 63.0885 172.353 62.9135 171.953C62.7386 171.553 62.4852 171.192 62.1686 170.892C61.5364 170.311 60.7038 169.998 59.8455 170.017C58.9873 170.037 58.1698 170.388 57.5646 170.997Z" fill="url(#paint7_linear_1341_79)"/>
<path d="M9.51831 162.851C6.81573 157.263 5.91464 150.973 6.93942 144.851C7.9642 138.729 10.8643 133.075 15.2394 128.672C15.8479 128.066 16.1987 127.249 16.2182 126.39C16.2377 125.532 15.9245 124.699 15.3442 124.067C15.0437 123.75 14.683 123.497 14.2832 123.322C13.8833 123.147 13.4524 123.054 13.0161 123.049C12.5797 123.043 12.1466 123.125 11.7423 123.289C11.3381 123.453 10.9708 123.697 10.6622 124.006C5.30429 129.376 1.75156 136.282 0.497325 143.764C-0.756913 151.246 0.349566 158.932 3.66313 165.757C3.8938 166.221 4.23183 166.624 4.64919 166.932C5.06655 167.239 5.55121 167.443 6.063 167.525C6.57478 167.608 7.09896 167.568 7.59202 167.408C8.08508 167.248 8.53281 166.972 8.89819 166.604C9.37879 166.121 9.69673 165.5 9.80793 164.827C9.91905 164.155 9.81782 163.464 9.51831 162.851Z" fill="url(#paint8_linear_1341_79)"/>
<defs>
<linearGradient id="paint0_linear_1341_79" x1="93.118" y1="176.094" x2="93.118" y2="66.581" gradientUnits="userSpaceOnUse">
<stop offset="0.005" stop-color="#3F51DC"/>
<stop offset="1" stop-color="#2AC3D1"/>
</linearGradient>
<linearGradient id="paint1_linear_1341_79" x1="40.9364" y1="176.139" x2="40.9364" y2="66.5986" gradientUnits="userSpaceOnUse">
<stop offset="0.005" stop-color="#3F51DC"/>
<stop offset="1" stop-color="#2AC3D1"/>
</linearGradient>
<linearGradient id="paint2_linear_1341_79" x1="8.11755" y1="176.078" x2="8.11755" y2="66.5915" gradientUnits="userSpaceOnUse">
<stop offset="0.005" stop-color="#3F51DC"/>
<stop offset="1" stop-color="#2AC3D1"/>
</linearGradient>
<linearGradient id="paint3_linear_1341_79" x1="145.302" y1="176.085" x2="145.302" y2="66.559" gradientUnits="userSpaceOnUse">
<stop offset="0.005" stop-color="#3F51DC"/>
<stop offset="1" stop-color="#2AC3D1"/>
</linearGradient>
<linearGradient id="paint4_linear_1341_79" x1="178.129" y1="176.085" x2="178.129" y2="66.5774" gradientUnits="userSpaceOnUse">
<stop offset="0.005" stop-color="#3F51DC"/>
<stop offset="1" stop-color="#2AC3D1"/>
</linearGradient>
<linearGradient id="paint5_linear_1341_79" x1="178.129" y1="176.088" x2="178.129" y2="66.5713" gradientUnits="userSpaceOnUse">
<stop offset="0.005" stop-color="#3F51DC"/>
<stop offset="1" stop-color="#2AC3D1"/>
</linearGradient>
<linearGradient id="paint6_linear_1341_79" x1="145.307" y1="176.143" x2="145.307" y2="66.5958" gradientUnits="userSpaceOnUse">
<stop offset="0.005" stop-color="#3F51DC"/>
<stop offset="1" stop-color="#2AC3D1"/>
</linearGradient>
<linearGradient id="paint7_linear_1341_79" x1="40.9283" y1="176.085" x2="40.9283" y2="66.5523" gradientUnits="userSpaceOnUse">
<stop offset="0.005" stop-color="#3F51DC"/>
<stop offset="1" stop-color="#2AC3D1"/>
</linearGradient>
<linearGradient id="paint8_linear_1341_79" x1="8.10684" y1="176.07" x2="8.10684" y2="66.5978" gradientUnits="userSpaceOnUse">
<stop offset="0.005" stop-color="#3F51DC"/>
<stop offset="1" stop-color="#2AC3D1"/>
</linearGradient>
</defs>
</svg>
