<svg width="200" height="168" viewBox="0 0 200 168" fill="none" xmlns="http://www.w3.org/2000/svg">
<path d="M189.203 108.227C184.246 103.277 177.902 99.9499 171.013 98.6871C164.122 97.4243 157.01 98.2849 150.621 101.156C150.817 96.4001 150.025 91.655 148.296 87.2202C146.568 82.7853 143.938 78.7571 140.574 75.3893H140.558L156.858 59.0901C160.081 55.8843 162.641 52.0739 164.39 47.8774C166.139 43.6808 167.043 39.1805 167.049 34.6342C167.056 30.0878 166.166 25.5848 164.43 21.383C162.693 17.1812 160.146 13.3632 156.931 10.1478C153.718 6.93225 149.901 4.3824 145.7 2.64427C141.498 0.906143 136.996 0.0138766 132.45 0.0185731C127.903 0.0232697 123.402 0.924845 119.205 2.67165C115.008 4.41846 111.196 6.97617 107.989 10.1983C104.191 13.982 101.341 18.6101 99.6729 23.7049C97.99 18.7821 95.2169 14.3028 91.5612 10.6012C87.9055 6.89955 83.4609 4.07104 78.5595 2.32664C73.6582 0.582243 68.4261 -0.0330465 63.2538 0.526668C58.0814 1.08638 53.1021 2.80665 48.6873 5.55919C44.2725 8.31172 40.5361 12.0255 37.7568 16.4234C34.9775 20.8214 33.2271 25.7902 32.6359 30.959C32.0448 36.1279 32.6283 41.3636 34.3429 46.2755C36.0575 51.1874 38.8589 55.6488 42.5383 59.3271L58.8399 75.6401L58.8269 75.6327C55.521 78.9376 52.9229 82.8814 51.1908 87.2226C49.4587 91.5647 48.629 96.2136 48.7522 100.886C43.0014 98.3126 36.6565 97.36 30.4035 98.1311C24.1505 98.9021 18.2272 101.367 13.274 105.261C8.32071 109.155 4.52606 114.328 2.30016 120.222C0.0742509 126.116 -0.498185 132.507 0.644728 138.703C1.78764 144.899 4.60242 150.664 8.7848 155.376C12.9671 160.088 18.3579 163.567 24.3743 165.437C30.3907 167.307 36.804 167.498 42.9206 165.987C49.0372 164.477 54.6245 161.322 59.0785 156.866L75.1423 140.827C81.6257 147.309 90.4189 150.95 99.5866 150.95C108.754 150.95 117.548 147.309 124.031 140.827L140.308 157.111C146.794 163.576 155.581 167.203 164.738 167.196C173.896 167.189 182.677 163.549 189.153 157.074C195.63 150.6 199.273 141.819 199.282 132.661C199.291 123.503 195.666 114.717 189.203 108.229V108.227ZM116.126 18.341C120.449 14.0226 126.311 11.597 132.421 11.597C138.532 11.597 144.394 14.0226 148.717 18.341V18.3597C150.857 20.4993 152.554 23.0394 153.712 25.835C154.87 28.6306 155.466 31.6269 155.466 34.6528C155.466 37.6787 154.87 40.675 153.712 43.4705C152.554 46.2661 150.857 48.8063 148.717 50.9459L132.423 67.2401L116.126 50.9459C111.803 46.6217 109.375 40.7577 109.375 34.6434C109.375 28.5291 111.803 22.6651 116.126 18.341ZM50.9448 148.729C47.7213 151.954 43.614 154.15 39.1423 155.04C34.6706 155.931 30.0353 155.474 25.8228 153.73C21.6102 151.985 18.0097 149.031 15.4763 145.24C12.9431 141.449 11.591 136.992 11.591 132.433C11.591 127.873 12.9431 123.416 15.4763 119.626C18.0097 115.835 21.6102 112.88 25.8228 111.135C30.0353 109.391 34.6706 108.935 39.1423 109.825C43.614 110.715 47.7213 112.912 50.9448 116.136L66.9793 132.664L50.9448 148.729ZM67.2162 116.127L64.4969 113.399C61.3514 108.963 59.8754 103.558 60.3296 98.1384C60.7839 92.7192 63.1392 87.6354 66.9793 83.7843C71.257 88.0645 73.6796 93.8558 73.7239 99.9068C73.7682 105.959 71.4308 111.784 67.2162 116.127ZM66.9891 67.4779L50.6883 51.1803C47.466 47.9579 45.2716 43.8523 44.3826 39.3827C43.4936 34.9131 43.9499 30.2803 45.6939 26.0701C47.4379 21.8598 50.3912 18.2613 54.1803 15.7295C57.9694 13.1978 62.4242 11.8464 66.9813 11.8464C71.5385 11.8464 75.9932 13.1978 79.7824 15.7295C83.5716 18.2613 86.5246 21.8598 88.2686 26.0701C90.0126 30.2803 90.4694 34.9131 89.5803 39.3827C88.6912 43.8523 86.497 47.9579 83.2744 51.1803L66.9891 67.4779ZM83.5472 132.432C87.8843 128.218 93.7049 125.881 99.7519 125.923C105.799 125.966 111.586 128.385 115.864 132.658C111.527 136.872 105.706 139.21 99.6591 139.168C93.6121 139.125 87.8249 136.706 83.5472 132.432ZM124.275 75.3893C121.065 78.5992 118.518 82.41 116.78 86.6046C115.042 90.7985 114.148 95.2944 114.148 99.8343C114.148 104.374 115.042 108.87 116.78 113.064C118.518 117.259 121.065 121.07 124.275 124.279C117.789 117.798 108.995 114.156 99.826 114.156C90.6566 114.156 81.8626 117.798 75.3768 124.279L75.3695 124.271C81.7462 117.768 85.3001 109.012 85.257 99.9043C85.2146 90.7969 81.5801 82.0737 75.1423 75.6311L91.4203 59.3271C95.2152 55.546 98.0673 50.925 99.7462 45.8377C101.44 50.8306 104.261 55.366 107.991 59.0918L124.275 75.3877V75.3893ZM132.417 83.5311C136.735 87.8552 139.161 93.7173 139.161 99.8286C139.161 105.94 136.735 111.802 132.417 116.126V116.135C128.1 111.808 125.676 105.946 125.677 99.8335C125.677 93.7214 128.102 87.8585 132.419 83.5319L132.417 83.5311ZM181.06 148.969C178.921 151.109 176.381 152.808 173.585 153.966C170.79 155.124 167.793 155.721 164.767 155.721C161.741 155.721 158.744 155.124 155.948 153.966C153.152 152.808 150.612 151.109 148.473 148.969L132.178 132.671L148.472 116.369V116.361C152.796 112.04 158.66 109.614 164.773 109.615C170.886 109.617 176.749 112.047 181.07 116.371C185.391 120.695 187.818 126.558 187.817 132.672C187.815 138.785 185.385 144.647 181.06 148.969Z" fill="#775D6A"/>
</svg>
