<svg width="189" height="169" viewBox="0 0 189 169" fill="none" xmlns="http://www.w3.org/2000/svg">
<path d="M173.911 150.053C177.162 144.063 179.858 137.79 181.967 131.312C183.961 125.186 185.511 118.924 186.603 112.576C187.685 106.378 188.39 100.121 188.714 93.8387C188.877 90.8021 189 87.721 189 84.4712C189 81.2214 188.877 78.1403 188.714 75.1018C188.388 68.8202 187.684 62.5637 186.603 56.3668C185.511 50.0183 183.961 43.7566 181.967 37.63H47.8378C44.792 43.5723 42.4892 49.865 40.9812 56.3668C39.5272 62.5229 38.5945 68.79 38.1925 75.1018C37.988 78.0791 37.8504 81.1769 37.8504 84.4712C37.8504 87.7655 37.988 90.8614 38.1925 93.8387C38.5939 100.151 39.5266 106.419 40.9812 112.576C42.4879 119.078 44.7907 125.371 47.8378 131.312H141.426C144.479 125.372 146.785 119.079 148.292 112.576C149.746 106.419 150.679 100.151 151.08 93.8387C151.287 90.8614 151.426 87.7673 151.426 84.4712C151.426 81.175 151.287 78.0791 151.08 75.1018H75.8051C75.5708 78.0198 75.4333 81.1305 75.4333 84.4712C75.4333 87.8118 75.5708 90.9207 75.8051 93.8387H132.253C131.807 100.189 130.668 106.472 128.856 112.576H60.4169C58.6051 106.471 57.463 100.189 57.0109 93.8387C56.7804 90.9207 56.6391 87.8155 56.6391 84.4712C56.6391 81.1268 56.7748 78.0198 57.0109 75.1018C57.4638 68.7524 58.6059 62.4708 60.4169 56.3668H167.53C168.75 62.5477 169.54 68.805 169.897 75.0944C170.083 78.1069 170.207 81.2121 170.207 84.4638C170.207 87.7154 170.077 90.8188 169.897 93.8313C169.54 100.124 168.748 106.384 167.527 112.568C166.266 118.963 164.435 125.234 162.057 131.305C159.484 137.989 156.012 144.294 151.737 150.046H37.5251C33.2466 144.295 29.7733 137.99 27.2012 131.305C24.8228 125.234 22.993 118.964 21.7334 112.568C20.5084 106.385 19.7164 100.124 19.363 93.8313C19.1771 90.8188 19.0544 87.7302 19.0544 84.4638C19.0544 81.1973 19.1845 78.1069 19.363 75.0944C19.717 68.8023 20.509 62.5422 21.7334 56.3594C22.9932 49.964 24.8231 43.6935 27.2012 37.6225C29.7741 30.9389 33.2473 24.6354 37.5251 18.8857H173.907C166.894 6.05702 160.066 0.148804 160.066 0.148804H29.1942C29.1942 0.148804 22.3692 6.05702 15.3583 18.8857C12.1081 24.8744 9.41169 31.1459 7.30263 37.6225C5.30825 43.7493 3.75809 50.0111 2.66403 56.3594C1.58236 62.5563 0.877075 68.8126 0.552029 75.0944C0.388423 78.1329 0.267578 81.2121 0.267578 84.4638C0.267578 87.7154 0.388423 90.7947 0.552029 93.8313C0.876653 100.114 1.58194 106.371 2.66403 112.568C3.75809 118.916 5.30825 125.178 7.30263 131.305C9.41033 137.783 12.1067 144.056 15.3583 150.046C22.3692 162.869 29.1942 168.782 29.1942 168.782H160.07C160.07 168.782 166.898 162.876 173.911 150.053Z" fill="#90601D"/>
</svg>
