<svg xmlns="http://www.w3.org/2000/svg" width="187" height="166" fill="none" viewBox="0 0 187 166"><mask id="a" width="187" height="166" x="0" y="0" maskUnits="userSpaceOnUse" style="mask-type:luminance"><path fill="#fff" d="M186.667.192h-186v165.616h186z"/></mask><g mask="url(#a)"><path fill="#BF0A44" d="M91.8 79.765V30.662L54.711.189v42.808c-41.768 11.609-33.81 22.825-27.403 27.622L.667 83.412l43.427 20.867L88.09 83.412l-43.995-20.85-15.897 7.634C21.375 60.98 42.15 49.958 54.712 44.363v5.548z"/><path fill="#0063B0" d="M134.894 116.091 97.806 86.234v49.101l16.218 13.327c-2.868 12.588-19.073 3.135-30.754-5.677l9.32-7.65V86.234l-37.088 29.857v49.717l26.018-21.376c28.914 29.643 32.392 10.861 32.773 4.442l20.602 16.934z"/><path fill="#249795" d="M147.923 65.05c9.86-46.007-7.784-38.722-13.822-35.105V.192l-37.088 30.47v49.102L134.1 49.9V30.34c13.087-4.944 13.411 19.392 12.485 34.076l-3.903-1.853-43.428 20.853 43.428 20.867 43.991-20.867z"/></g></svg>