<svg xmlns="http://www.w3.org/2000/svg" width="187" height="187" fill="none" viewBox="0 0 187 187"><path fill="url(#a)" d="M152.121 52.503a15.106 15.106 0 0 0 11.196-14.528v-.039a15.02 15.02 0 0 0-15.019-15.02h-.039a15.106 15.106 0 0 0-14.525 11.197 42.14 42.14 0 0 1-40.615 30.922 42.134 42.134 0 0 1-40.615-30.922 15.11 15.11 0 0 0-14.527-11.194h-.04a15.02 15.02 0 0 0-15.019 15.02v.039a15.106 15.106 0 0 0 11.197 14.525 42.134 42.134 0 0 1 0 81.23 15.105 15.105 0 0 0-11.196 14.524v.04a15.02 15.02 0 0 0 4.399 10.621 15.02 15.02 0 0 0 10.62 4.398h.04a15.1 15.1 0 0 0 14.525-11.196 42.133 42.133 0 0 1 66.138-22.311 42.14 42.14 0 0 1 15.092 22.311 15.11 15.11 0 0 0 14.526 11.197h.039a15.023 15.023 0 0 0 15.02-15.019v-.041a15.105 15.105 0 0 0-11.197-14.525 42.134 42.134 0 0 1 0-81.23z"/><path fill="url(#b)" d="M19.647 8.89a3.28 3.28 0 0 0 3.751.621 29.98 29.98 0 0 1 34.159 5.72 3.33 3.33 0 0 0 4.62.106 3.267 3.267 0 0 0 .054-4.675 36.53 36.53 0 0 0-41.733-7.006 3.262 3.262 0 0 0-.85 5.235"/><path fill="url(#c)" d="M3.666 20.473a36.53 36.53 0 0 0 6.885 41.649 3.36 3.36 0 0 0 4.392.41 3.27 3.27 0 0 0 .34-4.92 29.98 29.98 0 0 1-5.762-34.231 3.28 3.28 0 0 0-.616-3.76 3.263 3.263 0 0 0-5.239.852"/><path fill="url(#d)" d="M162.841 176.725a29.98 29.98 0 0 1-34.167-5.728 3.325 3.325 0 0 0-4.605-.105 3.26 3.26 0 0 0-1.018 2.328c-.006.437.076.87.241 1.274.164.405.408.772.716 1.08a36.53 36.53 0 0 0 41.733 7.007 3.264 3.264 0 0 0-.927-6.144 3.27 3.27 0 0 0-1.973.288"/><path fill="url(#e)" d="M170.892 124.067a3.32 3.32 0 0 0-.874 2.324 3.32 3.32 0 0 0 .979 2.281 29.98 29.98 0 0 1 5.715 34.19 3.3 3.3 0 0 0-.291 1.976 3.27 3.27 0 0 0 3.744 2.7 3.25 3.25 0 0 0 1.413-.594c.418-.307.756-.709.987-1.174a36.525 36.525 0 0 0-6.987-41.764 3.27 3.27 0 0 0-4.686.061"/><path fill="url(#f)" d="M176.718 23.385a29.98 29.98 0 0 1-5.721 34.18 3.32 3.32 0 0 0-.979 2.28 3.32 3.32 0 0 0 .874 2.324 3.26 3.26 0 0 0 3.602.778 3.3 3.3 0 0 0 1.08-.716 36.52 36.52 0 0 0 6.999-41.751 3.26 3.26 0 0 0-3.929-1.651 3.282 3.282 0 0 0-1.926 4.556"/><path fill="url(#g)" d="M128.671 15.24a29.98 29.98 0 0 1 34.18-5.723 3.277 3.277 0 0 0 4.556-1.925 3.26 3.26 0 0 0-1.651-3.929 36.52 36.52 0 0 0-41.751 7 3.27 3.27 0 0 0 .061 4.681 3.325 3.325 0 0 0 4.605-.105"/><path fill="url(#h)" d="M57.565 170.997a29.98 29.98 0 0 1-34.18 5.721 3.28 3.28 0 0 0-3.753.62 3.264 3.264 0 0 0 .847 5.235 36.5 36.5 0 0 0 21.993 3.165 36.5 36.5 0 0 0 19.759-10.164 3.26 3.26 0 0 0 .682-3.621 3.3 3.3 0 0 0-.744-1.061 3.324 3.324 0 0 0-4.604.105"/><path fill="url(#i)" d="M9.518 162.851a29.98 29.98 0 0 1 5.721-34.179 3.326 3.326 0 0 0 .105-4.605 3.266 3.266 0 0 0-4.682-.061 36.52 36.52 0 0 0-6.999 41.751 3.26 3.26 0 0 0 2.4 1.768 3.26 3.26 0 0 0 3.745-2.698 3.3 3.3 0 0 0-.29-1.976"/><defs><linearGradient id="a" x1="93.118" x2="93.118" y1="176.094" y2="66.581" gradientUnits="userSpaceOnUse"><stop offset=".005" stop-color="#3F51DC"/><stop offset="1" stop-color="#2AC3D1"/></linearGradient><linearGradient id="b" x1="40.936" x2="40.936" y1="176.139" y2="66.599" gradientUnits="userSpaceOnUse"><stop offset=".005" stop-color="#3F51DC"/><stop offset="1" stop-color="#2AC3D1"/></linearGradient><linearGradient id="c" x1="8.118" x2="8.118" y1="176.078" y2="66.591" gradientUnits="userSpaceOnUse"><stop offset=".005" stop-color="#3F51DC"/><stop offset="1" stop-color="#2AC3D1"/></linearGradient><linearGradient id="d" x1="145.302" x2="145.302" y1="176.085" y2="66.559" gradientUnits="userSpaceOnUse"><stop offset=".005" stop-color="#3F51DC"/><stop offset="1" stop-color="#2AC3D1"/></linearGradient><linearGradient id="e" x1="178.129" x2="178.129" y1="176.085" y2="66.577" gradientUnits="userSpaceOnUse"><stop offset=".005" stop-color="#3F51DC"/><stop offset="1" stop-color="#2AC3D1"/></linearGradient><linearGradient id="f" x1="178.129" x2="178.129" y1="176.088" y2="66.571" gradientUnits="userSpaceOnUse"><stop offset=".005" stop-color="#3F51DC"/><stop offset="1" stop-color="#2AC3D1"/></linearGradient><linearGradient id="g" x1="145.307" x2="145.307" y1="176.143" y2="66.596" gradientUnits="userSpaceOnUse"><stop offset=".005" stop-color="#3F51DC"/><stop offset="1" stop-color="#2AC3D1"/></linearGradient><linearGradient id="h" x1="40.928" x2="40.928" y1="176.085" y2="66.552" gradientUnits="userSpaceOnUse"><stop offset=".005" stop-color="#3F51DC"/><stop offset="1" stop-color="#2AC3D1"/></linearGradient><linearGradient id="i" x1="8.107" x2="8.107" y1="176.07" y2="66.598" gradientUnits="userSpaceOnUse"><stop offset=".005" stop-color="#3F51DC"/><stop offset="1" stop-color="#2AC3D1"/></linearGradient></defs></svg>