<svg xmlns="http://www.w3.org/2000/svg" width="200" height="168" fill="none" viewBox="0 0 200 168"><path fill="#775D6A" d="M189.203 108.227a34.56 34.56 0 0 0-38.582-7.071 34.46 34.46 0 0 0-10.047-25.767h-.016l16.3-16.299a34.58 34.58 0 0 0 10.191-24.456 34.563 34.563 0 0 0-59.06-24.436 34 34 0 0 0-8.316 13.507A34.56 34.56 0 0 0 63.253.527a34.56 34.56 0 0 0-20.715 58.8L58.84 75.64l-.013-.007a34.43 34.43 0 0 0-10.075 25.253A34.565 34.565 0 0 0 2.3 120.222a34.564 34.564 0 0 0 22.074 45.215 34.56 34.56 0 0 0 34.705-8.571l16.063-16.039a34.574 34.574 0 0 0 48.889 0l16.277 16.284a34.57 34.57 0 0 0 48.895-48.882zm-73.077-89.886a23.06 23.06 0 0 1 32.591 0v.019a23.04 23.04 0 0 1 4.995 25.11 23 23 0 0 1-4.995 7.476L132.423 67.24l-16.297-16.294a23.06 23.06 0 0 1 0-32.605M50.945 148.729a23.05 23.05 0 0 1-25.122 5.001 23.055 23.055 0 0 1-14.232-21.297 23.05 23.05 0 0 1 14.232-21.298 23.06 23.06 0 0 1 25.122 5.001l16.034 16.528zm16.271-32.602-2.72-2.728a23.054 23.054 0 0 1 2.483-29.615 23.046 23.046 0 0 1 .237 32.343m-.227-48.65L50.69 51.18a23.041 23.041 0 1 1 32.585 0zm16.558 64.955a23.023 23.023 0 0 1 32.317.226 23.024 23.024 0 0 1-32.317-.226m40.728-57.043a34.58 34.58 0 0 0-10.127 24.445 34.56 34.56 0 0 0 10.127 24.445 34.59 34.59 0 0 0-48.898 0l-.007-.008a34.57 34.57 0 0 0-.228-48.64L91.42 59.327a34.15 34.15 0 0 0 8.326-13.49 34.3 34.3 0 0 0 8.245 13.255zm8.142 8.142a23.066 23.066 0 0 1 0 32.595v.009a23.08 23.08 0 0 1 .002-32.603zm48.643 65.438a23.03 23.03 0 0 1-25.112 4.997 23 23 0 0 1-7.475-4.997l-16.295-16.298 16.294-16.302v-.008a23.05 23.05 0 0 1 32.588 32.608"/></svg>