<svg xmlns="http://www.w3.org/2000/svg" width="189" height="169" fill="none" viewBox="0 0 189 169"><path fill="#90601D" d="M173.911 150.053a112 112 0 0 0 8.056-18.741 134 134 0 0 0 4.636-18.736 156 156 0 0 0 2.111-18.737c.163-3.037.286-6.118.286-9.368s-.123-6.33-.286-9.37a156 156 0 0 0-2.111-18.734 134 134 0 0 0-4.636-18.737H47.837a81.4 81.4 0 0 0-6.856 18.737 112.7 112.7 0 0 0-2.788 18.735 136 136 0 0 0-.343 9.37c0 3.294.138 6.39.343 9.367a112.6 112.6 0 0 0 2.788 18.737 81.2 81.2 0 0 0 6.857 18.736h93.588a81 81 0 0 0 6.866-18.736 112.6 112.6 0 0 0 2.788-18.737c.207-2.978.346-6.072.346-9.368s-.139-6.392-.346-9.37H75.805a117 117 0 0 0-.372 9.37c0 3.34.138 6.45.372 9.368h56.448a87.4 87.4 0 0 1-3.397 18.737h-68.44a87.8 87.8 0 0 1-3.405-18.737 118.4 118.4 0 0 1 0-18.737 88 88 0 0 1 3.406-18.735H167.53a137 137 0 0 1 2.367 18.727c.186 3.013.31 6.118.31 9.37s-.13 6.355-.31 9.367a137 137 0 0 1-2.37 18.737 109.4 109.4 0 0 1-5.47 18.737 79 79 0 0 1-10.32 18.741H37.525a78.8 78.8 0 0 1-10.324-18.741 109 109 0 0 1-5.468-18.737 135.5 135.5 0 0 1-2.37-18.737 151 151 0 0 1-.309-9.367c0-3.267.13-6.357.309-9.37a136 136 0 0 1 2.37-18.735 109.3 109.3 0 0 1 5.468-18.736 78.8 78.8 0 0 1 10.324-18.737h136.382C166.894 6.057 160.066.149 160.066.149H29.194S22.37 6.057 15.358 18.886a112 112 0 0 0-8.055 18.737 134 134 0 0 0-4.639 18.736A156 156 0 0 0 .552 75.094c-.164 3.039-.284 6.118-.284 9.37s.12 6.33.284 9.367c.325 6.283 1.03 12.54 2.112 18.737a134 134 0 0 0 4.639 18.737 112 112 0 0 0 8.055 18.741c7.011 12.823 13.836 18.736 13.836 18.736H160.07s6.828-5.906 13.841-18.729"/></svg>